<svg width="64" height="64" viewBox="0 0 64 64" fill="none" xmlns="http://www.w3.org/2000/svg">
<circle cx="32" cy="32" r="31.5" fill="#FEFEFE" stroke="#B7C4D0"/>
<path fill-rule="evenodd" clip-rule="evenodd" d="M2.13049 40.3248C5.76758 53.4027 17.763 63 32 63C49.1208 63 63 49.1208 63 32C63 29.3329 62.6632 26.7444 62.0297 24.2748L2.13049 40.3248Z" fill="#F6F7F9"/>
<path d="M27.414 46.4C27.1488 46.3999 26.8945 46.2945 26.707 46.107L17 36.4L18.414 34.986L27.314 43.886L46.223 19L47.814 20.209L28.214 46.009C28.1277 46.1227 28.0181 46.2165 27.8925 46.2843C27.767 46.3521 27.6284 46.3922 27.486 46.402L27.414 46.4Z" fill="#B7C4D0"/>
</svg>
