<svg width="64" height="64" viewBox="0 0 64 64" fill="none" xmlns="http://www.w3.org/2000/svg">
<circle cx="32" cy="32" r="31.5" fill="#FEFEFE" stroke="#B7C4D0"/>
<path fill-rule="evenodd" clip-rule="evenodd" d="M38.5 13L48 22.5V49.4167C48 50.2911 47.2837 51 46.4 51H17.6C16.7163 51 16 50.2911 16 49.4167V14.5833C16 13.7089 16.7163 13 17.6 13H38.5Z" fill="#B7C4D0"/>
<circle cx="44" cy="35" r="11" fill="#B7C4D0" stroke="#FEFEFE" stroke-width="2"/>
<mask id="path-4-inside-1" fill="white">
<path fill-rule="evenodd" clip-rule="evenodd" d="M40 35L44 29L48 35H45V41H43V35H40Z"/>
</mask>
<path fill-rule="evenodd" clip-rule="evenodd" d="M40 35L44 29L48 35H45V41H43V35H40Z" fill="#FEFEFE"/>
<path d="M40 35L39.1679 34.4453L38.1315 36H40V35ZM44 29L44.8321 28.4453L44 27.1972L43.1679 28.4453L44 29ZM48 35V36H49.8685L48.8321 34.4453L48 35ZM45 35V34H44V35H45ZM45 41V42H46V41H45ZM43 41H42V42H43V41ZM43 35H44V34H43V35ZM40.8321 35.5547L44.8321 29.5547L43.1679 28.4453L39.1679 34.4453L40.8321 35.5547ZM43.1679 29.5547L47.1679 35.5547L48.8321 34.4453L44.8321 28.4453L43.1679 29.5547ZM48 34H45V36H48V34ZM44 35V41H46V35H44ZM45 40H43V42H45V40ZM44 41V35H42V41H44ZM43 34H40V36H43V34Z" fill="#FEFEFE" mask="url(#path-4-inside-1)"/>
</svg>
