<svg width="146" height="146" viewBox="0 0 146 146" fill="none" xmlns="http://www.w3.org/2000/svg">
<circle cx="73" cy="73" r="73" fill="white"/>
<mask id="mask0" mask-type="alpha" maskUnits="userSpaceOnUse" x="0" y="0" width="146" height="146">
<circle cx="73" cy="73" r="73" fill="white"/>
</mask>
<g mask="url(#mask0)">
<circle cx="73" cy="73" r="73" fill="#DAF5FF"/>
<path fill-rule="evenodd" clip-rule="evenodd" d="M33 43C33 41.8954 33.8954 41 35 41H111C112.105 41 113 41.8954 113 43V145C113 146.105 112.105 147 111 147H35C33.8954 147 33 146.105 33 145V43Z" fill="#2E9CF2"/>
<path fill-rule="evenodd" clip-rule="evenodd" d="M47 114C47 113.448 47.4477 113 48 113H98C98.5523 113 99 113.448 99 114C99 114.552 98.5523 115 98 115H48C47.4477 115 47 114.552 47 114ZM47 120C47 119.448 47.4477 119 48 119H78C78.5523 119 79 119.448 79 120C79 120.552 78.5523 121 78 121H48C47.4477 121 47 120.552 47 120ZM48 125C47.4477 125 47 125.448 47 126C47 126.552 47.4477 127 48 127H62C62.5523 127 63 126.552 63 126C63 125.448 62.5523 125 62 125H48Z" fill="#B1EAFF"/>
<circle cx="73" cy="77" r="26" fill="#3048E9" fill-opacity="0.98"/>
<path d="M85.7066 64.293C85.5766 64.163 85.4133 64.0713 85.2346 64.0281C85.0559 63.9849 84.8687 63.9917 84.6936 64.048L56.6936 73.048C56.5095 73.1068 56.3464 73.2178 56.224 73.3674C56.1016 73.517 56.0252 73.6989 56.0041 73.8911C55.9829 74.0832 56.0179 74.2773 56.1048 74.45C56.1917 74.6227 56.3267 74.7665 56.4936 74.864L66.3996 80.643L75.9996 74L69.3566 83.6L75.1356 93.5C75.2232 93.6517 75.3491 93.7778 75.5008 93.8655C75.6524 93.9533 75.8244 93.9996 75.9996 94C76.0357 94 76.0718 93.998 76.1076 93.994C76.2997 93.9731 76.4817 93.897 76.6315 93.7749C76.7813 93.6528 76.8925 93.49 76.9516 93.306L85.9516 65.306C86.0079 65.1309 86.0148 64.9438 85.9715 64.765C85.9283 64.5863 85.8367 64.423 85.7066 64.293Z" fill="#B1EAFF"/>
</g>
</svg>
