<svg width="146" height="146" viewBox="0 0 146 146" fill="none" xmlns="http://www.w3.org/2000/svg">
<circle cx="73" cy="73" r="73" fill="white"/>
<mask id="mask0" mask-type="alpha" maskUnits="userSpaceOnUse" x="0" y="0" width="146" height="146">
<circle cx="73" cy="73" r="73" fill="white"/>
</mask>
<g mask="url(#mask0)">
<circle cx="73" cy="73" r="73" fill="#DAF5FF"/>
<path fill-rule="evenodd" clip-rule="evenodd" d="M33 43C33 41.8954 33.8954 41 35 41H111C112.105 41 113 41.8954 113 43V145C113 146.105 112.105 147 111 147H35C33.8954 147 33 146.105 33 145V43Z" fill="#2E9CF2"/>
<path fill-rule="evenodd" clip-rule="evenodd" d="M47 114C47 113.448 47.4477 113 48 113H98C98.5523 113 99 113.448 99 114C99 114.552 98.5523 115 98 115H48C47.4477 115 47 114.552 47 114ZM47 120C47 119.448 47.4477 119 48 119H78C78.5523 119 79 119.448 79 120C79 120.552 78.5523 121 78 121H48C47.4477 121 47 120.552 47 120ZM48 125C47.4477 125 47 125.448 47 126C47 126.552 47.4477 127 48 127H62C62.5523 127 63 126.552 63 126C63 125.448 62.5523 125 62 125H48Z" fill="#B1EAFF"/>
<circle cx="73" cy="77" r="26" fill="#3048E9" fill-opacity="0.98"/>
<mask id="mask1" mask-type="alpha" maskUnits="userSpaceOnUse" x="47" y="51" width="52" height="52">
<circle cx="73" cy="77" r="26" fill="#3048E9" fill-opacity="0.98"/>
</mask>
<g mask="url(#mask1)">
<path fill-rule="evenodd" clip-rule="evenodd" d="M81.28 90H66V73L69.022 59.791C69.0698 59.5671 69.1931 59.3664 69.3711 59.2225C69.5491 59.0785 69.7711 59 70 59C71.0609 59 72.0783 59.4214 72.8284 60.1716C73.5786 60.9217 74 61.9391 74 63V72H83C84.0609 72 85.0783 72.4214 85.8284 73.1716C86.5786 73.9217 87 74.9391 87 76V77C86.9998 77.0614 86.9942 77.1226 86.983 77.183L85.209 86.73C85.0386 87.6479 84.5526 88.4773 83.835 89.0745C83.1174 89.6717 82.2136 89.9991 81.28 90ZM49.6 73H64V90H49.6C48.6452 90 47.7295 89.8946 47.0544 89.7071C46.3793 89.5196 46 89.2652 46 89V74C46 73.7348 46.3793 73.4804 47.0544 73.2929C47.7295 73.1054 48.6452 73 49.6 73Z" fill="#B1EAFF"/>
</g>
</g>
</svg>
