<svg width="14" height="14" viewBox="0 0 14 14" fill="none" xmlns="http://www.w3.org/2000/svg">
<path fill-rule="evenodd" clip-rule="evenodd" d="M14 7C14 10.866 10.866 14 7 14C3.13401 14 0 10.866 0 7C0 3.13401 3.13401 0 7 0C10.866 0 14 3.13401 14 7ZM13 7C13 10.3137 10.3137 13 7 13C3.68629 13 1 10.3137 1 7C1 3.68629 3.68629 1 7 1C10.3137 1 13 3.68629 13 7ZM8 10C8 10.5523 7.55228 11 7 11C6.44772 11 6 10.5523 6 10V6.39413L4.69471 7.69521C4.30233 8.07353 3.67863 8.06812 3.29289 7.68305C2.90716 7.29799 2.90174 6.67536 3.28071 6.28365L6.2807 3.29228C6.6712 2.90257 7.3042 2.90257 7.6947 3.29228L10.6947 6.28365C10.9546 6.5343 11.0589 6.90546 10.9674 7.25448C10.8759 7.60351 10.6028 7.87608 10.2532 7.96744C9.90357 8.0588 9.53176 7.95472 9.28069 7.69521L8 6.41866V10Z" fill="#4B6C89"/>
</svg>
