<svg width="110" height="110" viewBox="0 0 110 110" fill="none" xmlns="http://www.w3.org/2000/svg">
<circle cx="55" cy="55" r="55" fill="#DAF5FF"/>
<mask id="mask0" mask-type="alpha" maskUnits="userSpaceOnUse" x="0" y="0" width="110" height="110">
<circle cx="55" cy="55" r="55" fill="white"/>
</mask>
<g mask="url(#mask0)">
<path fill-rule="evenodd" clip-rule="evenodd" d="M18 26C18 24.8954 18.8954 24 20 24H90C91.1046 24 92 24.8954 92 26V128C92 129.105 91.1046 130 90 130H20C18.8954 130 18 129.105 18 128V26Z" fill="#2E9CF2"/>
<path fill-rule="evenodd" clip-rule="evenodd" d="M30 85C30 84.4477 30.4477 84 31 84H79C79.5523 84 80 84.4477 80 85C80 85.5523 79.5523 86 79 86H31C30.4477 86 30 85.5523 30 85ZM30 91C30 90.4477 30.4477 90 31 90H59.7692C60.3215 90 60.7692 90.4477 60.7692 91C60.7692 91.5523 60.3215 92 59.7692 92H31C30.4477 92 30 91.5523 30 91ZM31 96C30.4477 96 30 96.4477 30 97C30 97.5523 30.4477 98 31 98H44.3846C44.9369 98 45.3846 97.5523 45.3846 97C45.3846 96.4477 44.9369 96 44.3846 96H31Z" fill="#B1EAFF"/>
<circle cx="55" cy="54" r="20" fill="#3048E9" fill-opacity="0.98"/>
<mask id="mask1" mask-type="alpha" maskUnits="userSpaceOnUse" x="35" y="34" width="40" height="40">
<circle cx="55" cy="54" r="20" fill="#3048E9" fill-opacity="0.98"/>
</mask>
<g mask="url(#mask1)">
<path fill-rule="evenodd" clip-rule="evenodd" d="M65 51.0006C65.299 51.0006 65.5963 51.0454 65.882 51.1336C66.2587 51.2493 66.6088 51.438 66.9125 51.689C67.2162 51.94 67.4675 52.2484 67.652 52.5966C67.8366 52.9447 67.9507 53.3258 67.9879 53.718C68.0251 54.1103 67.9847 54.506 67.869 54.8826L65.1 63.8826C64.9134 64.4976 64.5332 65.0359 64.0161 65.4174C63.4991 65.799 62.8726 66.0036 62.23 66.0006H50V53.4386L54 48.6386V44.0006C53.9999 43.8656 54.0271 43.7319 54.08 43.6076C54.1329 43.4833 54.2105 43.3711 54.308 43.2776C54.4059 43.1852 54.5212 43.1131 54.6472 43.0655C54.7732 43.018 54.9074 42.9959 55.042 43.0006C56.411 43.0586 59 44.1766 59 48.0006V51.0006H65ZM35 52.0006H47C47.2652 52.0006 47.5196 52.106 47.7071 52.2935C47.8946 52.481 48 52.7354 48 53.0006V66.0006H35C34.7348 66.0006 34.4804 65.8953 34.2929 65.7077C34.1054 65.5202 34 65.2658 34 65.0006V53.0006C34 52.7354 34.1054 52.481 34.2929 52.2935C34.4804 52.106 34.7348 52.0006 35 52.0006Z" fill="#B1EAFF"/>
</g>
</g>
</svg>
