<svg width="14" height="14" viewBox="0 0 14 14" fill="none" xmlns="http://www.w3.org/2000/svg">
<path d="M8.41172 11.5079C8.52717 11.4871 8.64623 11.5077 8.74807 11.5659L11.5 13.1384V10.1818C11.5 10.0387 11.5613 9.90246 11.6684 9.80756C12.2268 9.31293 12.7332 8.73384 13.0212 8.1132C13.3199 7.46933 13.4829 6.77088 13.5 6.06134C13.4964 3.05368 10.6564 0.5 7 0.5C3.34128 0.5 0.5 3.05694 0.5 6.06709C0.5 9.09995 3.10419 11.6272 6.73733 11.6273L8.41172 11.5079ZM8.41172 11.5079C7.98228 11.5849 7.20439 11.6272 6.73739 11.6273L8.41172 11.5079Z" stroke="#4B6C89" stroke-linecap="round" stroke-linejoin="round"/>
<path fill-rule="evenodd" clip-rule="evenodd" d="M7 5H4V6H7V5ZM10 8V7H4V8H10Z" fill="#4B6C89"/>
</svg>
