<svg width="11" height="12" viewBox="0 0 11 12" fill="none" xmlns="http://www.w3.org/2000/svg">
<path d="M9.73593 6.63585L6.76641 9.59985C5.98746 10.3776 4.85184 10.6817 3.78732 10.3974C2.7228 10.1132 1.89111 9.28392 1.60553 8.22194C1.31995 7.15995 1.62388 6.02662 2.40282 5.24885L5.63392 2.02685C6.34874 1.34787 7.47171 1.34787 8.18653 2.02685C8.52527 2.36447 8.7156 2.82261 8.7156 3.30035C8.7156 3.77809 8.52527 4.23623 8.18653 4.57385L5.217 7.53585C5.01124 7.74068 4.67813 7.74068 4.47237 7.53585C4.26818 7.33008 4.26818 6.99862 4.47237 6.79285L6.66619 4.59985C6.86728 4.41288 6.95006 4.13129 6.88205 3.86556C6.81403 3.59983 6.60608 3.39233 6.33976 3.32446C6.07344 3.2566 5.79123 3.3392 5.60385 3.53985L3.40502 5.73285C2.61158 6.5251 2.61203 7.80915 3.40602 8.60085C4.20002 9.39255 5.4869 9.3921 6.28034 8.59985L9.24886 5.63485C10.0846 4.80099 10.4109 3.58562 10.105 2.44655C9.79916 1.30748 8.90749 0.41776 7.76591 0.112546C6.62433 -0.192667 5.40628 0.132992 4.57058 0.96685L1.34349 4.18785C-0.447635 5.97477 -0.44786 8.87216 1.34299 10.6593C3.13384 12.4465 6.03761 12.4468 7.82874 10.6598L10.7983 7.69985C11.0742 7.40434 11.0661 6.94384 10.7798 6.65823C10.4936 6.37262 10.0321 6.36449 9.73593 6.63985V6.63585Z" fill="#4B6C89"/>
</svg>
